<svg width="19" height="19" viewBox="0 0 19 19" fill="none" xmlns="http://www.w3.org/2000/svg">
<path d="M10.6193 9.49931L15.601 4.51735C15.6766 4.44432 15.737 4.35697 15.7784 4.26038C15.8199 4.1638 15.8418 4.05991 15.8427 3.9548C15.8436 3.84968 15.8236 3.74543 15.7838 3.64814C15.744 3.55085 15.6852 3.46246 15.6108 3.38812C15.5365 3.31379 15.4481 3.25501 15.3508 3.2152C15.2535 3.1754 15.1493 3.15537 15.0442 3.15628C14.9391 3.15719 14.8352 3.17903 14.7386 3.22052C14.642 3.26201 14.5546 3.32232 14.4816 3.39794L9.49966 8.3797L4.51789 3.39794C4.36889 3.2522 4.16842 3.17111 3.95999 3.17226C3.75157 3.1734 3.552 3.2567 3.40461 3.40407C3.25721 3.55144 3.17388 3.75098 3.1727 3.95941C3.17151 4.16784 3.25257 4.36832 3.39828 4.51735L8.38024 9.49931L3.39828 14.4813C3.32342 14.5545 3.26383 14.6418 3.22296 14.7382C3.18209 14.8346 3.16074 14.9382 3.16017 15.0429C3.15959 15.1476 3.17979 15.2514 3.2196 15.3482C3.25941 15.4451 3.31803 15.5331 3.39208 15.6071C3.46613 15.6811 3.55412 15.7397 3.65098 15.7795C3.74783 15.8193 3.85162 15.8395 3.95632 15.8389C4.06103 15.8383 4.16458 15.8169 4.26097 15.7761C4.35737 15.7352 4.44469 15.6756 4.51789 15.6007L9.49966 10.6189L14.4816 15.6007C14.6362 15.7553 14.8389 15.8326 15.0413 15.8326C15.2438 15.8326 15.4467 15.7553 15.601 15.6007C15.7494 15.4522 15.8328 15.2509 15.8328 15.041C15.8328 14.8311 15.7494 14.6297 15.601 14.4813L10.6193 9.49931Z" fill="black"/>
</svg>
