<svg width="12" height="9" viewBox="0 0 12 9" fill="none" xmlns="http://www.w3.org/2000/svg">
<path d="M5.50595 8.7408C5.561 8.82074 5.63465 8.8861 5.72058 8.93125C5.8065 8.97641 5.90212 9 5.99919 9C6.09626 9 6.19187 8.97641 6.27779 8.93125C6.36372 8.8861 6.43738 8.82074 6.49243 8.7408L11.8928 0.941336C11.9554 0.851376 11.992 0.746008 11.9988 0.63668C12.0057 0.527352 11.9824 0.418245 11.9315 0.321214C11.8807 0.224183 11.8042 0.142939 11.7105 0.086309C11.6167 0.0296788 11.5092 -0.000171795 11.3996 7.43741e-07H0.598764C0.489461 0.000452158 0.38235 0.0306866 0.288948 0.0874525C0.195546 0.144218 0.119388 0.225368 0.0686635 0.322174C0.0179391 0.418981 -0.00543232 0.527781 0.00106256 0.636876C0.00755745 0.74597 0.0436729 0.85123 0.105525 0.941336L5.50595 8.7408Z" fill="black" fill-opacity="0.5"/>
</svg>
