<svg width="48" height="49" viewBox="0 0 48 49" fill="none" xmlns="http://www.w3.org/2000/svg">
<path d="M16.6667 33.7647C16.6667 34.8693 17.5621 35.7647 18.6667 35.7647C19.7712 35.7647 20.6667 34.8693 20.6667 33.7647L16.6667 33.7647ZM20.6667 25.8235C20.6667 24.719 19.7712 23.8235 18.6667 23.8235C17.5621 23.8235 16.6667 24.719 16.6667 25.8235H20.6667ZM27.3333 33.7647C27.3333 34.8693 28.2288 35.7647 29.3333 35.7647C30.4379 35.7647 31.3333 34.8693 31.3333 33.7647H27.3333ZM31.3333 25.8235C31.3333 24.719 30.4379 23.8235 29.3333 23.8235C28.2288 23.8235 27.3333 24.719 27.3333 25.8235H31.3333ZM17.4894 1.51362C16.679 2.26417 16.6305 3.52957 17.381 4.33997C18.1316 5.15037 19.397 5.19888 20.2074 4.44833L17.4894 1.51362ZM27.7926 4.44833C28.603 5.19888 29.8684 5.15037 30.619 4.33997C31.3695 3.52957 31.321 2.26417 30.5106 1.51362L27.7926 4.44833ZM20.6667 33.7647L20.6667 25.8235H16.6667L16.6667 33.7647L20.6667 33.7647ZM31.3333 33.7647V25.8235H27.3333V33.7647H31.3333ZM0 14.5882H48V10.5882H0V14.5882ZM29.3333 45H18.6667V49H29.3333V45ZM10 36.4118V20.5294H6V36.4118H10ZM38 20.5294V36.4118H42V20.5294H38ZM48 10.5882C46.7847 10.5882 45.7737 10.5872 44.9467 10.6432C44.102 10.7004 43.3048 10.8237 42.5318 11.1415L44.0529 14.841C44.2601 14.7558 44.5741 14.6776 45.217 14.634C45.8775 14.5893 46.7303 14.5882 48 14.5882V10.5882ZM42 20.5294C42 19.2685 42.0011 18.4237 42.046 17.7699C42.0897 17.1343 42.168 16.8273 42.2517 16.6266L38.5602 15.0862C38.238 15.8584 38.1133 16.6545 38.0555 17.4956C37.9989 18.3183 38 19.3236 38 20.5294H42ZM42.5318 11.1415C40.7373 11.8793 39.307 13.2966 38.5602 15.0862L42.2517 16.6266C42.5876 15.8218 43.2338 15.1778 44.0529 14.841L42.5318 11.1415ZM10 20.5294C10 19.3236 10.0011 18.3183 9.94455 17.4956C9.88674 16.6545 9.76199 15.8584 9.43977 15.0862L5.74827 16.6266C5.83203 16.8273 5.91028 17.1343 5.95396 17.7699C5.9989 18.4237 6 19.2685 6 20.5294H10ZM0 14.5882C1.26968 14.5882 2.1225 14.5893 2.78302 14.634C3.42585 14.6776 3.73993 14.7558 3.94709 14.841L5.4682 11.1415C4.69524 10.8237 3.89801 10.7004 3.05331 10.6432C2.22629 10.5872 1.21535 10.5882 0 10.5882V14.5882ZM9.43977 15.0862C8.69301 13.2966 7.2627 11.8793 5.4682 11.1415L3.94709 14.841C4.76622 15.1778 5.41244 15.8218 5.74827 16.6266L9.43977 15.0862ZM18.6667 45C16.0964 45 14.3684 44.9958 13.0791 44.8237C11.8459 44.6592 11.318 44.3744 10.9711 44.03L8.15311 46.8688C9.36826 48.075 10.8785 48.5655 12.55 48.7886C14.1654 49.0042 16.2086 49 18.6667 49V45ZM6 36.4118C6 38.8505 5.99569 40.8822 6.21336 42.4893C6.43902 44.1554 6.93592 45.6606 8.15311 46.8688L10.9711 44.03C10.6262 43.6876 10.342 43.1696 10.1772 41.9524C10.0043 40.6762 10 38.9644 10 36.4118H6ZM29.3333 49C31.7914 49 33.8346 49.0042 35.45 48.7886C37.1215 48.5655 38.6317 48.075 39.8469 46.8688L37.0289 44.03C36.682 44.3744 36.1541 44.6592 34.9209 44.8237C33.6316 44.9958 31.9036 45 29.3333 45V49ZM38 36.4118C38 38.9644 37.9957 40.6762 37.8228 41.9524C37.658 43.1696 37.3738 43.6876 37.0289 44.03L39.8469 46.8688C41.0641 45.6606 41.561 44.1554 41.7866 42.4893C42.0043 40.8822 42 38.8505 42 36.4118H38ZM20.2074 4.44833C20.1296 4.52041 20.0816 4.54302 20.1029 4.53136C20.1197 4.52218 20.1693 4.49744 20.2618 4.46308C20.4497 4.39332 20.7358 4.31278 21.1274 4.2382L20.3792 0.308806C19.8394 0.411595 19.3249 0.544075 18.8692 0.713348C18.4482 0.86971 17.9218 1.11312 17.4894 1.51362L20.2074 4.44833ZM21.1274 4.2382C21.9105 4.08908 22.9232 4 24 4V0C22.7287 1.19209e-07 21.4589 0.103194 20.3792 0.308806L21.1274 4.2382ZM24 4C25.0768 4 26.0895 4.08908 26.8726 4.2382L27.6208 0.308806C26.5411 0.103193 25.2713 0 24 0V4ZM26.8726 4.2382C27.2642 4.31278 27.5503 4.39332 27.7382 4.46308C27.8307 4.49744 27.8803 4.52217 27.8971 4.53136C27.9184 4.54302 27.8704 4.52041 27.7926 4.44833L30.5106 1.51362C30.0782 1.11312 29.5518 0.86971 29.1308 0.713348C28.6751 0.544075 28.1606 0.411595 27.6208 0.308806L26.8726 4.2382Z" fill="#ED787E"/>
</svg>
