<svg width="32" height="32" viewBox="0 0 32 32" fill="none" xmlns="http://www.w3.org/2000/svg">
<path d="M29.0753 13.3861H28.0013V13.3307H16.0013V18.6641H23.5366C22.4373 21.7687 19.4833 23.9974 16.0013 23.9974C11.5833 23.9974 8.0013 20.4154 8.0013 15.9974C8.0013 11.5794 11.5833 7.9974 16.0013 7.9974C18.0406 7.9974 19.896 8.76673 21.3086 10.0234L25.08 6.25206C22.6986 4.03273 19.5133 2.66406 16.0013 2.66406C8.63797 2.66406 2.66797 8.63406 2.66797 15.9974C2.66797 23.3607 8.63797 29.3307 16.0013 29.3307C23.3646 29.3307 29.3346 23.3607 29.3346 15.9974C29.3346 15.1034 29.2426 14.2307 29.0753 13.3861Z" fill="#FFC107"/>
<path d="M4.20312 9.7914L8.58379 13.0041C9.76912 10.0694 12.6398 7.9974 15.9991 7.9974C18.0385 7.9974 19.8938 8.76673 21.3065 10.0234L25.0778 6.25206C22.6965 4.03273 19.5111 2.66406 15.9991 2.66406C10.8778 2.66406 6.43646 5.5554 4.20312 9.7914Z" fill="#FF3D00"/>
<path d="M15.9989 29.3338C19.4429 29.3338 22.5722 28.0158 24.9382 25.8725L20.8116 22.3805C19.4279 23.4327 17.7372 24.0018 15.9989 24.0005C12.5309 24.0005 9.58624 21.7891 8.47691 18.7031L4.12891 22.0531C6.33557 26.3711 10.8169 29.3338 15.9989 29.3338Z" fill="#4CAF50"/>
<path d="M29.074 13.3913H28V13.3359H16V18.6693H23.5353C23.0095 20.1469 22.0622 21.4381 20.8107 22.3833L20.8127 22.3819L24.9393 25.8739C24.6473 26.1393 29.3333 22.6693 29.3333 16.0026C29.3333 15.1086 29.2413 14.2359 29.074 13.3913Z" fill="#1976D2"/>
</svg>
