<svg width="29" height="26" viewBox="0 0 29 26" fill="none" xmlns="http://www.w3.org/2000/svg">
<path fill-rule="evenodd" clip-rule="evenodd" d="M18.6019 7.89062H25.6658C25.9419 7.89062 26.1658 7.66677 26.1658 7.39062C26.1658 7.11448 25.9419 6.89062 25.6658 6.89062H18.2944C18.3671 7.2363 18.4706 7.57064 18.6019 7.89062ZM16.4847 7.89062C16.3893 7.5656 16.3145 7.23176 16.2618 6.89062H1.87891C1.60276 6.89062 1.37891 7.11448 1.37891 7.39062C1.37891 7.66677 1.60276 7.89062 1.87891 7.89062H16.4847ZM1.87891 15.3859C1.60276 15.3859 1.37891 15.6098 1.37891 15.8859C1.37891 16.1621 1.60276 16.3859 1.87891 16.3859H25.6658C25.9419 16.3859 26.1658 16.1621 26.1658 15.8859C26.1658 15.6098 25.9419 15.3859 25.6658 15.3859H1.87891ZM1.87891 23.8813C1.60276 23.8813 1.37891 24.1051 1.37891 24.3813C1.37891 24.6574 1.60276 24.8813 1.87891 24.8813H25.6658C25.9419 24.8813 26.1658 24.6574 26.1658 24.3813C26.1658 24.1051 25.9419 23.8813 25.6658 23.8813H1.87891Z" fill="#5F5F5F"/>
<path d="M18.6019 7.89062L17.9081 8.17538L18.099 8.64062H18.6019V7.89062ZM18.2944 6.89062V6.14062H17.3702L17.5604 7.04503L18.2944 6.89062ZM16.4847 7.89062V8.64062H17.4864L17.2043 7.67942L16.4847 7.89062ZM16.2618 6.89062L17.003 6.77619L16.9049 6.14062H16.2618V6.89062ZM25.6658 7.14062H18.6019V8.64062H25.6658V7.14062ZM25.4158 7.39062C25.4158 7.25255 25.5277 7.14062 25.6658 7.14062V8.64062C26.3562 8.64062 26.9158 8.08098 26.9158 7.39062H25.4158ZM25.6658 7.64062C25.5277 7.64062 25.4158 7.5287 25.4158 7.39062H26.9158C26.9158 6.70027 26.3562 6.14062 25.6658 6.14062V7.64062ZM18.2944 7.64062H25.6658V6.14062H18.2944V7.64062ZM17.5604 7.04503C17.6426 7.43575 17.7597 7.81369 17.9081 8.17538L19.2958 7.60587C19.1816 7.32759 19.0916 7.03686 19.0283 6.73622L17.5604 7.04503ZM17.2043 7.67942C17.1182 7.38593 17.0506 7.08442 17.003 6.77619L15.5206 7.00506C15.5784 7.37911 15.6604 7.74526 15.765 8.10183L17.2043 7.67942ZM1.87891 7.64062H16.2618V6.14062H1.87891V7.64062ZM2.12891 7.39062C2.12891 7.5287 2.01698 7.64062 1.87891 7.64062V6.14062C1.18855 6.14062 0.628906 6.70027 0.628906 7.39062H2.12891ZM1.87891 7.14062C2.01698 7.14062 2.12891 7.25255 2.12891 7.39062H0.628906C0.628906 8.08098 1.18855 8.64062 1.87891 8.64062V7.14062ZM16.4847 7.14062H1.87891V8.64062H16.4847V7.14062ZM2.12891 15.8859C2.12891 16.024 2.01698 16.1359 1.87891 16.1359V14.6359C1.18855 14.6359 0.628906 15.1956 0.628906 15.8859H2.12891ZM1.87891 15.6359C2.01698 15.6359 2.12891 15.7479 2.12891 15.8859H0.628906C0.628906 16.5763 1.18855 17.1359 1.87891 17.1359V15.6359ZM25.6658 15.6359H1.87891V17.1359H25.6658V15.6359ZM25.4158 15.8859C25.4158 15.7479 25.5277 15.6359 25.6658 15.6359V17.1359C26.3562 17.1359 26.9158 16.5763 26.9158 15.8859H25.4158ZM25.6658 16.1359C25.5277 16.1359 25.4158 16.024 25.4158 15.8859H26.9158C26.9158 15.1956 26.3562 14.6359 25.6658 14.6359V16.1359ZM1.87891 16.1359H25.6658V14.6359H1.87891V16.1359ZM2.12891 24.3813C2.12891 24.5193 2.01698 24.6313 1.87891 24.6313V23.1313C1.18855 23.1313 0.628906 23.6909 0.628906 24.3813H2.12891ZM1.87891 24.1313C2.01698 24.1313 2.12891 24.2432 2.12891 24.3813H0.628906C0.628906 25.0716 1.18855 25.6313 1.87891 25.6313V24.1313ZM25.6658 24.1313H1.87891V25.6313H25.6658V24.1313ZM25.4158 24.3813C25.4158 24.2432 25.5277 24.1313 25.6658 24.1313V25.6313C26.3562 25.6313 26.9158 25.0716 26.9158 24.3813H25.4158ZM25.6658 24.6313C25.5277 24.6313 25.4158 24.5193 25.4158 24.3813H26.9158C26.9158 23.6909 26.3562 23.1313 25.6658 23.1313V24.6313ZM1.87891 24.6313H25.6658V23.1313H1.87891V24.6313Z" fill="#5F5F5F"/>
<circle cx="23" cy="6" r="6" fill="#ED787E"/>
</svg>
