<svg width="16" height="16" viewBox="0 0 16 16" fill="none" xmlns="http://www.w3.org/2000/svg">
<path d="M7.08222 2.0989C7.04226 2.33169 6.95633 2.55418 6.82944 2.75339C6.70255 2.9526 6.53725 3.12453 6.34318 3.25915C6.14912 3.39378 5.93018 3.48839 5.69914 3.53747C5.46811 3.58655 5.22961 3.58911 4.99758 3.54501C4.76555 3.5009 4.54462 3.41101 4.34771 3.28059C4.1508 3.15017 3.98184 2.98183 3.8507 2.78539C3.71956 2.58895 3.62886 2.36836 3.58391 2.13649C3.53896 1.90462 3.54065 1.66612 3.58889 1.4349C4.26667 1.84646 4.85733 2.07846 5.47289 2.1629C5.99556 2.23402 6.51289 2.19579 7.08178 2.0989H7.08222ZM3.976 0.629571C4.17947 0.389172 4.44312 0.20711 4.74001 0.101993C5.03689 -0.00312368 5.35637 -0.0275253 5.66578 0.0312825C5.97518 0.0900902 6.26343 0.229998 6.50105 0.436706C6.73867 0.643414 6.91714 0.90951 7.01822 1.20779C6.45733 1.30779 6.01778 1.34024 5.59333 1.28202C5.11333 1.21624 4.61911 1.02957 3.97556 0.629571H3.976ZM3.77778 3.99979C2.56178 3.99979 1.59911 4.74202 0.981778 5.63979C0.36 6.54513 0 7.7189 0 8.87668C0 9.4949 0.286667 10.2122 0.488889 10.6633C0.611606 10.9348 0.745044 11.2012 0.888889 11.462V15.1109C0.888889 15.3467 0.98254 15.5727 1.14924 15.7394C1.31594 15.9061 1.54203 15.9998 1.77778 15.9998C2.01353 15.9998 2.23962 15.9061 2.40632 15.7394C2.57302 15.5727 2.66667 15.3467 2.66667 15.1109V10.0193C2.79644 8.94913 3.10133 7.97935 3.45022 7.18646L3.74222 8.32246C3.79125 8.51355 3.90245 8.6829 4.05831 8.80384C4.21417 8.92478 4.40583 8.99043 4.60311 8.99046H6.88889C7.12464 8.99046 7.35073 8.89681 7.51743 8.73011C7.68413 8.56341 7.77778 8.33732 7.77778 8.10157C7.77778 7.86582 7.68413 7.63973 7.51743 7.47303C7.35073 7.30633 7.12464 7.21268 6.88889 7.21268H5.29244L4.63911 4.66735C4.58998 4.47627 4.47868 4.30696 4.32274 4.1861C4.1668 4.06524 3.97507 3.9997 3.77778 3.99979ZM13.7778 5.33313C14.2493 5.33313 14.7015 5.14583 15.0349 4.81243C15.3683 4.47903 15.5556 4.02684 15.5556 3.55535C15.5556 3.08385 15.3683 2.63167 15.0349 2.29827C14.7015 1.96487 14.2493 1.77757 13.7778 1.77757C13.3063 1.77757 12.8541 1.96487 12.5207 2.29827C12.1873 2.63167 12 3.08385 12 3.55535C12 4.02684 12.1873 4.47903 12.5207 4.81243C12.8541 5.14583 13.3063 5.33313 13.7778 5.33313Z" fill="white"/>
<path fill-rule="evenodd" clip-rule="evenodd" d="M11.2098 5.35585C11.4087 5.31302 11.6163 5.33975 11.7979 5.43156C11.9795 5.52337 12.1241 5.6747 12.2076 5.86029L13.3844 8.47674H15.1111C15.3469 8.47674 15.573 8.57039 15.7397 8.73709C15.9064 8.90378 16 9.12988 16 9.36563C16 9.60137 15.9064 9.82747 15.7397 9.99416C15.573 10.1609 15.3469 10.2545 15.1111 10.2545H12.8093C12.638 10.2545 12.4704 10.205 12.3266 10.112C12.1828 10.0189 12.0689 9.8863 11.9987 9.73007L11.3613 8.31363C11.1582 8.68785 11.0244 9.03229 10.9396 9.39007C10.8507 9.76518 10.8116 10.1745 10.8187 10.6732C10.9622 10.7332 11.1213 10.7932 11.2916 10.8518C11.6844 10.987 12.0884 11.0998 12.4187 11.1883L12.5831 11.2323H12.5836C12.6706 11.2553 12.7576 11.2787 12.8444 11.3025C12.9007 11.3177 12.9565 11.3341 13.012 11.3518L13.016 11.3532C13.0431 11.3621 13.1618 11.399 13.2716 11.4661C13.4147 11.5527 13.5142 11.6718 13.5347 11.6958L13.5373 11.699C13.5787 11.7478 13.62 11.8012 13.6573 11.8523C13.7342 11.955 13.8249 12.0861 13.92 12.2278C14.1129 12.5141 14.348 12.8798 14.5738 13.2358C14.8456 13.6648 15.1148 14.0955 15.3813 14.5278L15.456 14.6487L14.6978 15.1136L15.4556 14.6483C15.5166 14.7478 15.5575 14.8584 15.5759 14.9737C15.5942 15.089 15.5897 15.2068 15.5625 15.3203C15.5353 15.4339 15.486 15.541 15.4175 15.6355C15.3489 15.73 15.2624 15.8101 15.1629 15.8712C15.0634 15.9323 14.9528 15.9731 14.8375 15.9915C14.7222 16.0098 14.6044 16.0053 14.4908 15.9781C14.3773 15.9509 14.2702 15.9017 14.1757 15.8331C14.0812 15.7645 14.0011 15.678 13.94 15.5785L13.868 15.4607C13.6052 15.0348 13.34 14.6103 13.0724 14.1874C12.8672 13.8623 12.6578 13.5397 12.4444 13.2198C12.3849 13.131 12.3329 13.0554 12.2889 12.9932L12.1404 12.9536L11.9578 12.9047C11.5384 12.7949 11.1229 12.6707 10.712 12.5323L10.6667 12.5163V16.0025H9.77778V12.8914H4.88889V16.0025H4V11.5581H8.90356C8.86362 11.5177 8.82551 11.4756 8.78933 11.4318C8.61289 11.2176 8.44444 10.9092 8.44444 10.5207C8.44444 8.43096 9.008 7.13363 9.69467 6.34474C9.96576 6.02826 10.2932 5.76483 10.6604 5.56785C10.7996 5.49451 10.9213 5.44474 11.0156 5.41229C11.0748 5.39164 11.135 5.37385 11.196 5.35896L11.2031 5.35718L11.2067 5.35629H11.208C11.208 5.35629 11.2098 5.35585 11.3969 6.22474L11.2098 5.35585ZM12.484 13.0492C12.484 13.0492 12.4782 13.0478 12.4689 13.0443C12.474 13.0459 12.479 13.0477 12.484 13.0496V13.0492ZM12.1893 12.8581C12.1878 12.8563 12.1863 12.8545 12.1849 12.8527L12.1893 12.8581Z" fill="white"/>
<path d="M7.77799 2.66753C8.14599 2.66753 8.44466 2.16976 8.44466 1.55642C8.44466 0.94309 8.14599 0.445312 7.77799 0.445312C7.40999 0.445312 7.11133 0.94309 7.11133 1.55642C7.11133 2.16976 7.40999 2.66753 7.77799 2.66753Z" fill="white"/>
</svg>
