<svg width="200" height="112" viewBox="0 0 200 112" fill="none" xmlns="http://www.w3.org/2000/svg">
<g clip-path="url(#clip0_634_476)">
<path d="M76.9531 6.39781C76.9531 6.39781 89.9509 6.74343 101.238 20.3558C116.227 38.4363 95.837 53.8518 100.902 72.2196C80.0813 58.7654 114.976 23.4123 76.9531 6.39781ZM104.587 0.0309188C101.144 -0.38549 97.9607 2.60432 97.4713 6.66015C96.9818 10.716 99.3779 14.3262 102.821 14.7218C106.264 15.1174 109.448 12.1526 109.937 8.09676C110.427 4.04094 108.047 0.430671 104.587 0.0309188ZM109.111 27.6971C111.41 22.5711 115.755 16.933 123.156 10.7076C123.156 10.7076 114.189 11.9943 105.856 21.0054C107.26 23.0735 108.356 25.3267 109.111 27.6971Z" fill="white"/>
<path d="M82.2439 21.2726C85.6487 27.6812 89.5982 34.6352 91.7943 38.4328C92.454 22.4844 85.521 14.9765 78.9923 11.5703C73.8851 26.1113 78.4475 34.4936 87.1425 38.9159C84.0484 31.2706 82.2439 21.2726 82.2439 21.2726Z" fill="white"/>
<path d="M76.2901 53.3452L76.7157 54.2821C73.4135 49.7046 71.766 44.1802 72.0341 38.5835C72.1582 36.2711 72.5873 33.9841 73.3109 31.7794C73.8242 33.039 74.4644 34.2456 75.2218 35.3813C74.0836 39.0198 73.7928 42.8615 74.3706 46.6243C74.4472 47.2823 74.6047 47.9235 74.7324 48.5773C74.7962 48.9021 74.8941 49.2227 74.975 49.5434C75.0558 49.864 75.1409 50.193 75.2473 50.5094L75.5538 51.4713C75.6644 51.7878 75.7879 52.1001 75.907 52.4166L76.0858 52.8913L76.2901 53.3452ZM121.667 23.1639C121.08 22.4643 120.463 21.7897 119.812 21.1484C118.75 22.3217 117.755 23.552 116.833 24.8337C117.258 25.2501 117.65 25.6665 118.037 26.1162C118.856 27.0526 119.6 28.0493 120.263 29.0977C120.929 30.1487 121.514 31.2469 122.012 32.3831C122.503 33.5266 122.911 34.7024 123.234 35.9018C123.557 37.1062 123.779 38.3346 123.898 39.5745C124.039 40.8188 124.072 42.0725 123.995 43.3222C123.928 44.5816 123.765 45.8344 123.506 47.0699C123.236 48.3096 122.879 49.5298 122.438 50.7218C122.323 51.0174 122.195 51.3089 122.076 51.6046C121.957 51.9002 121.838 52.2 121.689 52.4832L121.263 53.3493C121.195 53.4951 121.118 53.6325 121.038 53.7657L120.803 54.1822L120.565 54.5986L120.45 54.8109L120.318 55.015L119.795 55.8478C119.629 56.1226 119.42 56.3725 119.233 56.639L118.948 57.0554C118.85 57.1845 118.756 57.3177 118.65 57.4426C117.019 59.5197 115.078 61.3446 112.892 62.8559C112.351 63.2724 111.768 63.5847 111.189 63.9469C110.9 64.1218 110.598 64.2759 110.304 64.4383C110.01 64.6007 109.708 64.7673 109.402 64.9088L108.482 65.3586C108.167 65.496 107.853 65.6251 107.533 65.775L107.061 65.9748L106.576 66.1456L105.601 66.5037C111.266 65.6931 116.492 63.0551 120.45 59.0083C124.532 54.8281 127.111 49.4603 127.796 43.7178C128.512 37.8414 127.258 31.8965 124.221 26.7783C123.478 25.5038 122.623 24.2946 121.667 23.1639Z" fill="white"/>
</g>
<path d="M19.8365 84.3133V88.7385H12.6303V111.648H7.20622V88.7385H0V84.3133H19.8365Z" fill="white"/>
<path d="M41.7782 100.33C41.7782 101.113 41.7265 101.818 41.6232 102.445H25.9322C26.0614 104.011 26.6038 105.238 27.5594 106.126C28.5151 107.014 29.6903 107.457 31.085 107.457C33.0997 107.457 34.5332 106.583 35.3855 104.834H41.2358C40.6159 106.922 39.4277 108.645 37.6714 110.003C35.915 111.334 33.7583 112 31.2013 112C29.135 112 27.2753 111.543 25.6223 110.629C23.995 109.69 22.7165 108.371 21.7867 106.674C20.8827 104.977 20.4307 103.019 20.4307 100.8C20.4307 98.5548 20.8827 96.5837 21.7867 94.8867C22.6907 93.1897 23.9563 91.8844 25.5835 90.9706C27.2107 90.0569 29.0833 89.6 31.2013 89.6C33.2417 89.6 35.0627 90.0438 36.6641 90.9315C38.2913 91.8191 39.544 93.0853 40.4221 94.7301C41.3262 96.3487 41.7782 98.2154 41.7782 100.33ZM36.1604 98.7636C36.1346 97.3538 35.6309 96.2312 34.6494 95.3958C33.6679 94.5343 32.4669 94.1035 31.0463 94.1035C29.7032 94.1035 28.5667 94.5212 27.6369 95.3566C26.7329 96.166 26.1776 97.3016 25.971 98.7636H36.1604Z" fill="white"/>
<path d="M74.8176 84.3133V111.648H69.3936V93.8685L62.1486 111.648H58.0418L50.7581 93.8685V111.648H45.3341V84.3133H51.4942L60.0952 104.638L68.6962 84.3133H74.8176Z" fill="white"/>
<path d="M89.3078 112C87.2415 112 85.3819 111.543 83.7288 110.629C82.0758 109.69 80.7714 108.371 79.8158 106.674C78.8859 104.977 78.421 103.019 78.421 100.8C78.421 98.5809 78.8988 96.6228 79.8545 94.9259C80.836 93.2289 82.1662 91.9235 83.8451 91.0098C85.5239 90.0699 87.3965 89.6 89.4628 89.6C91.5291 89.6 93.4017 90.0699 95.0806 91.0098C96.7594 91.9235 98.0767 93.2289 99.0324 94.9259C100.014 96.6228 100.505 98.5809 100.505 100.8C100.505 103.019 100.001 104.977 98.9936 106.674C98.0121 108.371 96.669 109.69 94.9643 110.629C93.2855 111.543 91.4 112 89.3078 112ZM89.3078 107.222C90.2893 107.222 91.2063 106.987 92.0586 106.517C92.9368 106.021 93.6342 105.29 94.1507 104.324C94.6673 103.359 94.9256 102.184 94.9256 100.8C94.9256 98.7375 94.3832 97.158 93.2984 96.0615C92.2394 94.9389 90.9351 94.3776 89.3853 94.3776C87.8356 94.3776 86.5312 94.9389 85.4723 96.0615C84.4391 97.158 83.9225 98.7375 83.9225 100.8C83.9225 102.862 84.4262 104.455 85.4335 105.578C86.4667 106.674 87.7581 107.222 89.3078 107.222Z" fill="white"/>
<path d="M109.958 97.9804C109.958 95.3175 110.552 92.9287 111.74 90.814C112.928 88.6732 114.543 87.0023 116.583 85.8014C118.65 84.6005 120.935 84 123.441 84C126.385 84 128.955 84.7179 131.151 86.1538C133.346 87.5897 134.947 89.6261 135.955 92.2629H131.732C130.983 90.6182 129.898 89.352 128.477 88.4643C127.083 87.5767 125.404 87.1329 123.441 87.1329C121.555 87.1329 119.863 87.5767 118.365 88.4643C116.867 89.352 115.692 90.6182 114.84 92.2629C113.987 93.8816 113.561 95.7874 113.561 97.9804C113.561 100.147 113.987 102.053 114.84 103.698C115.692 105.317 116.867 106.57 118.365 107.457C119.863 108.345 121.555 108.789 123.441 108.789C125.404 108.789 127.083 108.358 128.477 107.497C129.898 106.609 130.983 105.343 131.732 103.698H135.955C134.947 106.309 133.346 108.332 131.151 109.768C128.955 111.178 126.385 111.883 123.441 111.883C120.935 111.883 118.65 111.295 116.583 110.12C114.543 108.919 112.928 107.262 111.74 105.147C110.552 103.032 109.958 100.643 109.958 97.9804Z" fill="white"/>
<path d="M139.483 100.839C139.483 98.6462 139.922 96.7273 140.8 95.0825C141.678 93.4117 142.879 92.1193 144.403 91.2056C145.953 90.2918 147.67 89.835 149.556 89.835C151.415 89.835 153.03 90.2396 154.399 91.049C155.768 91.8583 156.788 92.8765 157.459 94.1035V90.1874H161.024V111.648H157.459V107.653C156.762 108.906 155.716 109.951 154.321 110.786C152.952 111.595 151.351 112 149.517 112C147.632 112 145.927 111.53 144.403 110.59C142.879 109.65 141.678 108.332 140.8 106.635C139.922 104.938 139.483 103.006 139.483 100.839ZM157.459 100.878C157.459 99.2597 157.137 97.8499 156.491 96.649C155.845 95.448 154.967 94.5343 153.856 93.9077C152.771 93.255 151.57 92.9287 150.253 92.9287C148.936 92.9287 147.735 93.242 146.65 93.8685C145.565 94.4951 144.7 95.4089 144.054 96.6098C143.409 97.8107 143.086 99.2205 143.086 100.839C143.086 102.484 143.409 103.92 144.054 105.147C144.7 106.348 145.565 107.275 146.65 107.927C147.735 108.554 148.936 108.867 150.253 108.867C151.57 108.867 152.771 108.554 153.856 107.927C154.967 107.275 155.845 106.348 156.491 105.147C157.137 103.92 157.459 102.497 157.459 100.878Z" fill="white"/>
<path d="M170.104 93.6727C170.724 92.4457 171.602 91.4928 172.739 90.814C173.901 90.1352 175.309 89.7958 176.962 89.7958V93.4769H176.032C172.08 93.4769 170.104 95.6438 170.104 99.9776V111.648H166.579V90.1874H170.104V93.6727Z" fill="white"/>
<path d="M200 100.095C200 100.774 199.961 101.492 199.884 102.249H182.914C183.043 104.364 183.754 106.021 185.045 107.222C186.362 108.397 187.951 108.985 189.811 108.985C191.334 108.985 192.6 108.632 193.607 107.927C194.641 107.196 195.364 106.23 195.777 105.029H199.574C199.006 107.092 197.869 108.776 196.164 110.081C194.46 111.36 192.342 112 189.811 112C187.796 112 185.988 111.543 184.387 110.629C182.811 109.716 181.571 108.423 180.667 106.752C179.763 105.055 179.311 103.097 179.311 100.878C179.311 98.6592 179.75 96.7142 180.628 95.0434C181.507 93.3725 182.733 92.0932 184.309 91.2056C185.91 90.2918 187.744 89.835 189.811 89.835C191.825 89.835 193.607 90.2788 195.157 91.1664C196.707 92.0541 197.895 93.2811 198.721 94.8476C199.574 96.3879 200 98.1371 200 100.095ZM196.358 99.351C196.358 97.9935 196.061 96.8317 195.467 95.8657C194.873 94.8737 194.059 94.1296 193.026 93.6336C192.019 93.1114 190.895 92.8504 189.656 92.8504C187.873 92.8504 186.35 93.4247 185.084 94.5734C183.844 95.7221 183.134 97.3147 182.953 99.351H196.358Z" fill="white"/>
<defs>
<clipPath id="clip0_634_476">
<rect width="56.0089" height="72.2219" fill="white" transform="translate(72)"/>
</clipPath>
</defs>
</svg>
