<svg width="36" height="46" viewBox="0 0 36 46" fill="none" xmlns="http://www.w3.org/2000/svg">
<g clip-path="url(#clip0_634_470)">
<path d="M3.15625 4.0799C3.15625 4.0799 11.4349 4.30004 18.6238 12.9701C28.171 24.486 15.1838 34.3045 18.4096 46.0034C5.14865 37.4341 27.3741 14.9168 3.15625 4.0799ZM20.7571 0.024669C18.5641 -0.240552 16.5365 1.66374 16.2248 4.24699C15.913 6.83025 17.4392 9.12971 19.6322 9.38167C21.8252 9.63364 23.8528 7.74526 24.1646 5.16201C24.4763 2.57875 22.961 0.279281 20.7571 0.024669ZM23.6387 17.646C25.1025 14.3811 27.8701 10.79 32.5841 6.82494C32.5841 6.82494 26.8726 7.64448 21.5649 13.3839C22.4594 14.7011 23.1577 16.1362 23.6387 17.646Z" fill="#ED787E"/>
<path d="M6.52505 13.5547C8.69365 17.6364 11.2092 22.0656 12.608 24.4844C13.0281 14.3264 8.61232 9.54451 4.45403 7.375C1.20114 16.6365 4.10706 21.9754 9.64512 24.7921C7.67441 19.9226 6.52505 13.5547 6.52505 13.5547Z" fill="#496163"/>
<path d="M2.73263 33.9757L3.0037 34.5724C0.900465 31.6569 -0.148838 28.1383 0.0218801 24.5736C0.100913 23.1007 0.374254 21.6441 0.835105 20.2399C1.16208 21.0422 1.56979 21.8107 2.05223 22.534C1.32728 24.8515 1.14203 27.2983 1.51008 29.695C1.55887 30.114 1.65917 30.5225 1.74049 30.9389C1.78115 31.1458 1.8435 31.35 1.895 31.5542C1.94651 31.7584 2.00072 31.9679 2.06849 32.1695L2.26367 32.7822C2.33415 32.9837 2.41276 33.1826 2.48866 33.3842L2.60251 33.6866L2.73263 33.9757ZM31.6346 14.7524C31.2605 14.3068 30.8675 13.8772 30.4527 13.4688C29.7761 14.216 29.1426 14.9997 28.5552 15.816C28.8263 16.0812 29.0757 16.3464 29.3224 16.6328C29.8441 17.2292 30.3181 17.8641 30.7401 18.5318C31.1642 19.2013 31.5366 19.9007 31.8542 20.6244C32.1668 21.3527 32.4268 22.1016 32.6322 22.8655C32.8383 23.6327 32.9797 24.415 33.0551 25.2048C33.1451 25.9973 33.166 26.7958 33.1174 27.5918C33.0746 28.394 32.9704 29.1919 32.8057 29.9788C32.6334 30.7684 32.406 31.5455 32.1253 32.3048C32.0521 32.4931 31.9708 32.6787 31.8949 32.867C31.819 33.0553 31.7431 33.2463 31.6482 33.4267L31.3771 33.9783C31.3337 34.0711 31.2849 34.1587 31.2334 34.2435L31.0843 34.5088L30.9325 34.774L30.8594 34.9092L30.7753 35.0392L30.4419 35.5696C30.3362 35.7447 30.2034 35.9038 30.0841 36.0736L29.9025 36.3388C29.8401 36.421 29.7805 36.5059 29.7127 36.5854C28.674 37.9084 27.4376 39.0707 26.0451 40.0333C25.7008 40.2985 25.3294 40.4975 24.9608 40.7282C24.7764 40.8396 24.584 40.9377 24.3969 41.0412C24.2099 41.1446 24.0174 41.2507 23.8223 41.3409L23.2367 41.6273C23.0361 41.7148 22.8355 41.797 22.6322 41.8925L22.3313 42.0198L22.0223 42.1286L21.4016 42.3567C25.0096 41.8403 28.3382 40.1602 30.8594 37.5827C33.4594 34.9202 35.1019 31.5013 35.5381 27.8437C35.9942 24.1009 35.1951 20.3145 33.2611 17.0545C32.7876 16.2428 32.2435 15.4726 31.6346 14.7524Z" fill="#496163"/>
</g>
<defs>
<clipPath id="clip0_634_470">
<rect width="35.6735" height="46" fill="white"/>
</clipPath>
</defs>
</svg>
